# xmcd
#
# Track frame offsets:
#	150
#	12797
#	28926
#	50039
#	62955
#	67162
#	70760
#	91028
#	104498
#	116007
#	130080
#	139877
#
# Disc length: 1884 seconds
#
# Revision: 0
# Processed by: cddbd v1.5.1PL2 Copyright (c) Steve Scherf et al.
# Submitted via: dBpowerAMP V4.0
#
DISCID=b1075a0c
DTITLE=Beck - The Banjo Story (1988)
DYEAR=1900
DGENRE=
TTITLE0=Let's Go Moon Some Cars
TTITLE1=Goin' Nowhere Fast
TTITLE2=Talkin' Demolition Expert
TTITLE3=Sucker Without a Brain
TTITLE4=My Head is Gonna Break in Two
TTITLE5=Atmospheric Recordings
TTITLE6=You Can Be So Careless
TTITLE7=Instrumental Rag
TTITLE8=Bottle of Wine
TTITLE9=Chillin' Like Gilligan
TTITLE10=Together We Found Mystery
TTITLE11=Hell
EXTD=
EXTT0=
EXTT1=
EXTT2=
EXTT3=
EXTT4=
EXTT5=
EXTT6=
EXTT7=
EXTT8=
EXTT9=
EXTT10=
EXTT11=
PLAYORDER=
